<svg id="App_Basic_Object_Detection" data-name="App_Basic Object Detection" xmlns="http://www.w3.org/2000/svg" width="50" height="50" viewBox="0 0 50 50">
  <rect id="Application_Icon_2" data-name="Application Icon_2" width="50" height="50" rx="10" fill="#f99e3d"/>
  <path id="view_in_ar_FILL0_wght300_GRAD0_opsz48" d="M74.841,183.5l-8.088-4.738a2.279,2.279,0,0,1-.78-.8,2.181,2.181,0,0,1-.281-1.1V167.4a2.2,2.2,0,0,1,.281-1.094,2.255,2.255,0,0,1,.78-.814l8.126-4.785A2.2,2.2,0,0,1,76,160.4a2.173,2.173,0,0,1,1.12.3l8.126,4.785a2.255,2.255,0,0,1,.78.814,2.2,2.2,0,0,1,.281,1.094v9.453a2.164,2.164,0,0,1-.284,1.1,2.221,2.221,0,0,1-.815.8L77.038,183.5a2.212,2.212,0,0,1-1.108.3A2.12,2.12,0,0,1,74.841,183.5Zm.3-1.852v-9.061L67.444,168.2v8.607a.436.436,0,0,0,.059.22.5.5,0,0,0,.176.176l7.458,4.445Zm1.729,0,7.481-4.445a.5.5,0,0,0,.176-.176.436.436,0,0,0,.059-.22V168.2l-7.716,4.387ZM76,171.043l7.692-4.44-7.458-4.3a.5.5,0,0,0-.469,0l-7.458,4.3ZM76,171.761ZM76,171.043ZM76.865,172.587ZM75.137,172.587Z" transform="translate(-51.002 -147.002)" fill="#fff"/>
  <path id="Subtraction_1" data-name="Subtraction 1" d="M33.5,34h-6V32.5H32V28h1.5v6Zm-26,0h-6V28H3v4.5H7.5V34Zm26-26H32V3.5H27.5V2h6V8ZM3,8H1.5V2h6V3.5H3V8Z" transform="translate(7.5 7)" fill="#fff"/>
</svg>
