<svg id="Icon_Confrim" xmlns="http://www.w3.org/2000/svg" width="32" height="32" viewBox="0 0 32 32">
  <rect id="base" width="32" height="32" fill="none"/>
  <path id="task_alt_FILL1_wght400_GRAD0_opsz48" d="M89,194a8.764,8.764,0,0,1-3.51-.709,8.986,8.986,0,0,1-4.781-4.781,9.046,9.046,0,0,1,0-7.02,8.986,8.986,0,0,1,4.781-4.781,9.081,9.081,0,0,1,6.2-.3,9.307,9.307,0,0,1,2.351,1.125L92.668,178.9a7.738,7.738,0,0,0-1.732-.743A7.111,7.111,0,1,0,96.11,185q0-.383-.034-.731a6.878,6.878,0,0,0-.1-.686l1.53-1.53a8.512,8.512,0,0,1,.371,1.429A9.091,9.091,0,0,1,98,185a8.763,8.763,0,0,1-.709,3.51,8.986,8.986,0,0,1-4.781,4.781A8.764,8.764,0,0,1,89,194Zm-1.237-4.883-3.848-3.87,1.328-1.328,2.542,2.543,8.888-8.887L98,178.88Z" transform="translate(-73 -169)" fill="#0dd22e"/>
</svg>
