<svg id="App_Tracking_Area" data-name="App_Tracking Area" xmlns="http://www.w3.org/2000/svg" xmlns:xlink="http://www.w3.org/1999/xlink" width="50" height="50" viewBox="0 0 50 50">
  <defs>
    <linearGradient id="linear-gradient" x1="1" y1="0.13" x2="0.147" y2="0.758" gradientUnits="objectBoundingBox">
      <stop offset="0" stop-color="#fff" stop-opacity="0.4"/>
      <stop offset="1" stop-color="#fff" stop-opacity="0"/>
    </linearGradient>
  </defs>
  <rect id="Application_Icon_5" data-name="Application Icon_5" width="50" height="50" rx="10" fill="#383ef5"/>
  <path id="Path_525" data-name="Path 525" d="M-21948-22739.027l-25.715,15.313-8.375-4.375v-9l26.246-15.223,5.156,6.563Z" transform="translate(21982.09 22768)" fill="url(#linear-gradient)"/>
  <path id="deployed_code_FILL1_wght300_GRAD0_opsz48" d="M147.322,213.412l-6.643-3.835a1.275,1.275,0,0,1-.5-.5A1.37,1.37,0,0,1,140,208.4v-7.511a1.37,1.37,0,0,1,.179-.679,1.275,1.275,0,0,1,.5-.5l6.643-3.835a1.375,1.375,0,0,1,1.357,0l6.643,3.835a1.275,1.275,0,0,1,.5.5,1.37,1.37,0,0,1,.179.679V208.4a1.37,1.37,0,0,1-.179.679,1.274,1.274,0,0,1-.5.5l-6.643,3.835a1.375,1.375,0,0,1-1.357,0Zm.679-.843.534-.3v-7.325l6.4-3.712v-.516l-.619-.348L148,204.041l-6.328-3.674-.6.348v.53l6.4,3.7v7.325Z" transform="translate(-113.912 -184.617)" fill="#fff"/>
</svg>
