<svg id="App_Basic_Segmentation" data-name="App_Basic Segmentation" xmlns="http://www.w3.org/2000/svg" width="50" height="50" viewBox="0 0 50 50">
  <rect id="Application_Icon_3" data-name="Application Icon_3" width="50" height="50" rx="10" fill="#16c187"/>
  <path id="deployed_code_FILL1_wght300_GRAD0_opsz48" d="M149.61,218.948l-8.718-5.034a1.673,1.673,0,0,1-.656-.656,1.8,1.8,0,0,1-.235-.891v-9.859a1.8,1.8,0,0,1,.235-.891,1.673,1.673,0,0,1,.656-.656l8.718-5.034a1.8,1.8,0,0,1,1.782,0l8.718,5.034a1.673,1.673,0,0,1,.656.656,1.8,1.8,0,0,1,.235.891v9.859a1.8,1.8,0,0,1-.235.891,1.673,1.673,0,0,1-.656.656l-8.718,5.034a1.8,1.8,0,0,1-1.782,0Zm.891-1.107.7-.394v-9.614l8.4-4.872v-.677l-.812-.456L150.5,206.65l-8.3-4.822-.793.456v.7l8.4,4.853v9.614Z" transform="translate(-125.002 -182.694)" fill="#fff"/>
</svg>
