<svg id="Icon_Pen" xmlns="http://www.w3.org/2000/svg" width="32" height="32" viewBox="0 0 32 32">
  <rect id="base" width="32" height="32" fill="none"/>
  <path id="pen-nib-solid" d="M13.67,2.392,11.916,4.15,15.86,8.094,17.614,6.34a1.763,1.763,0,0,0,0-2.5L16.165,2.392a1.763,1.763,0,0,0-2.5,0ZM11.137,4.8l-.29.088L6.308,6.245A2.015,2.015,0,0,0,4.976,7.537L2.184,15.86a1.006,1.006,0,0,0,.23,1.021l4.839-4.836a1.513,1.513,0,1,1,.712.712L3.126,17.6a1,1,0,0,0,1.021.23l8.326-2.791A2.021,2.021,0,0,0,13.765,13.7l1.361-4.54.088-.29Z" transform="translate(5.867 6.123)"/>
</svg>
